# xmcd
#
# Track frame offsets:
#   150
#   24445
#   53630
#   74915
#   102837
#   128857
#   150115
#   172840
#   191498
#   210035
#
# Disc length: 3009 seconds
#
# Revision: 0
# Processed by: cddbd v1.5.2PL0 Copyright (c) Steve Scherf et al.
# Submitted via: uFREEDB 1.6.0
#
DISCID=750bbf0a
DTITLE=The UK Blues Project - No Rush
DYEAR=2006
DGENRE=Blues
TTITLE0=Come on baby
TTITLE1=Mr. Blues
TTITLE2=Don't know what I'm gonna do
TTITLE3=Feel like a wolf
TTITLE4=Someday
TTITLE5=I don't
TTITLE6=No rush
TTITLE7=I'm back
TTITLE8=Standing on your feet
TTITLE9=Want you need you
EXTD=
EXTT0=
EXTT1=
EXTT2=
EXTT3=
EXTT4=
EXTT5=
EXTT6=
EXTT7=
EXTT8=
EXTT9=
PLAYORDER=
